<?xml version="1.0" encoding="utf-8"?>
<!-- Generator: Adobe Illustrator 26.0.2, SVG Export Plug-In . SVG Version: 6.00 Build 0)  -->
<svg version="1.1" id="Livello_1" xmlns="http://www.w3.org/2000/svg" xmlns:xlink="http://www.w3.org/1999/xlink" x="0px" y="0px"
	 viewBox="0 0 377.77 251.85" style="enable-background:new 0 0 377.77 251.85;" xml:space="preserve">
<style type="text/css">
	.st0{fill:#0B0708;}
	.st1{fill:#100606;}
</style>
<g>
	<g>
		<path class="st0" d="M97.66,149.71c62.93-85.25,124.95-88.29,185.97-0.97c1.32,1.89,0.6,4.53-1.52,5.43
			c-61.96,26.28-122.81,24-182.85,1.11C97,154.41,96.23,151.64,97.66,149.71z"/>
		<path class="st1" d="M97.62,149.68c62.12-84.99,124.31-89.01,186.21-1.19c1.57,2.01,0.59,5.31-1.85,6.08c0,0-3.17,1.27-3.17,1.27
			c-12.48,5.18-25.76,9.42-38.98,12.31c-2.01,0.49-4.68,1.08-6.68,1.39c-4.02,0.67-9.48,1.78-13.47,2.14c0,0-6.77,0.84-6.77,0.84
			s-6.81,0.49-6.81,0.49c-20.39,1.53-41.03-0.2-61.07-4.18c-13.26-2.79-26.59-6.45-39.31-11.14c0,0-6.4-2.33-6.4-2.33
			C97.05,154.64,96.11,151.56,97.62,149.68L97.62,149.68z M97.69,149.73c-1.42,1.84-0.55,4.81,1.69,5.51c0,0,6.42,2.28,6.42,2.28
			c5.27,1.96,10.82,3.54,16.19,5.23c31.55,8.98,64.99,12.35,97.58,8.09c5.26-0.56,11.56-1.77,16.77-2.74
			c2.21-0.49,7.69-1.78,9.94-2.28c12-3.06,23.97-7.18,35.44-11.85c2.1-0.67,2.93-3.37,1.6-5.11c0,0-1.98-2.76-1.98-2.76
			c-13.13-18.34-28.21-36.01-47.38-48.23C179.13,62.43,129.91,106.07,97.69,149.73L97.69,149.73z"/>
	</g>
	<g>
		<path class="st0" d="M83.42,152.16c-0.06,2.15-0.69,4-1.93,5.63c-0.67,0.72-1.57,1.33-2.04,2.18c-0.87,1.26-0.51,3.72,0.46,4.54
			c2.11,1.2,4.17,1.29,6.87,2.69c0.14,0.06,0.15,0.27,0.02,0.35c-2.34,1.47-5.62,2.07-8.18,0.44c-1.78-1.1-2.53-3.98-1.48-5.55
			c0.48-1.05,1-1.91,1.27-2.89c0.35-2.05,0.43-4.17,2.13-5.7c0.71-0.74,1.51-1.41,2.6-1.87C83.26,151.9,83.42,152.01,83.42,152.16
			L83.42,152.16z"/>
	</g>
	<g>
		<path class="st0" d="M297.35,148.72c1.99,0.6,3.54,2.25,3.76,4.34c-0.16,2.15-1.02,3.76-1.17,5.91c-0.78,3.99-4.75,6.68-8.81,6.24
			c-0.11-0.01-0.19-0.11-0.18-0.22c1.52-2.59,3.22-3.98,5.4-5.49c1.08-0.95,3.09-1.78,2.99-3.53c0.03-0.83-0.67-1.56-1.03-2.18
			c-0.62-1.31-1.07-2.72-1.22-4.85C297.07,148.8,297.21,148.68,297.35,148.72L297.35,148.72z"/>
	</g>
	<g>
		<path class="st0" d="M107.35,172.17c21.73,3.92,43.59,8.81,65.53,11.4c10.99,1.07,22.23,0.44,33.2-0.5
			c25.74-2.25,50.92-7.83,75.35-16.49c0.19-0.08,0.28,0.16,0.14,0.32c-37.03,37.06-150.95,21.66-174.31,5.6
			C107.15,172.33,107.14,172.12,107.35,172.17L107.35,172.17z"/>
	</g>
	<path class="st0" d="M294.83,142.97c-67.46-94.6-135.48-89.6-204.06,3.15C81.08,157.07,185.26-46.16,294.83,142.97z"/>
</g>
</svg>
